<svg width="1024" height="1024" xmlns="http://www.w3.org/2000/svg" class="icon">
 <defs>
  <style type="text/css"/>
 </defs>
 <g>
  <title>background</title>
  <rect fill="none" id="canvas_background" height="2627.638999" width="2627.638999" y="-1" x="-1"/>
 </g>
 <g>
  <title>Layer 1</title>
  <path stroke="null" id="svg_1" fill="#000000" d="m510.076906,1016.307678c-278.426925,0 -506.230773,-227.803848 -506.230773,-506.230773s227.803848,-506.230773 506.230773,-506.230773s506.230773,227.803848 506.230773,506.230773s-227.803848,506.230773 -506.230773,506.230773zm256.279329,-563.181734l-287.918752,0c-12.655769,0 -25.311539,12.655769 -25.311539,25.311539l0,63.278847c0,12.655769 12.655769,25.311539 25.311539,25.311539l174.016828,0c12.655769,0 25.311539,12.655769 25.311539,25.311539l0,12.655769c0,41.13125 -34.803366,75.934616 -75.934616,75.934616l-237.295675,0c-12.655769,0 -25.311539,-12.655769 -25.311539,-25.311539l0,-240.459617c0,-41.13125 34.803366,-75.934616 75.934616,-75.934616l351.197598,0c12.655769,0 25.311539,-12.655769 25.311539,-25.311539l0,-63.278847c0,-12.655769 -12.655769,-25.311539 -25.311539,-25.311539l-351.197598,0c-104.410097,0 -186.672597,85.426443 -186.672597,186.672597l0,351.197598c0,12.655769 12.655769,25.311539 25.311539,25.311539l370.181252,0c91.754328,0 167.688943,-75.934616 167.688943,-167.688943l0,-142.377405c0,-12.655769 -12.655769,-25.311539 -25.311539,-25.311539z"/>
 </g>
</svg>