<?xml version="1.0" encoding="UTF-8" standalone="no"?>
<!DOCTYPE svg PUBLIC "-//W3C//DTD SVG 1.1//EN" "http://www.w3.org/Graphics/SVG/1.1/DTD/svg11.dtd">
<svg version="1.1" xmlns="http://www.w3.org/2000/svg" xmlns:xlink="http://www.w3.org/1999/xlink" preserveAspectRatio="xMidYMid meet" viewBox="0 0 640 640" width="640" height="640"><defs><path d="M27.76 0C13.63 0 2.21 11.44 2.21 25.6C2.21 84.48 2.21 555.52 2.21 614.4C2.21 628.56 13.63 640 27.76 640C86.53 640 556.68 640 615.45 640C629.58 640 641 628.56 641 614.4C641 555.52 641 84.48 641 25.6C641 11.44 629.58 0 615.45 0C497.91 0 86.53 0 27.76 0ZM314.66 449.2C322 475.6 312.02 499.68 312.02 499.68C306.93 493.71 281.46 463.87 235.61 410.16C235.61 410.11 235.61 410.09 235.61 410.08C228.5 433.28 219.56 455.92 209.02 477.84C190.97 514.4 164.94 521.6 137.55 524C110.08 526.4 118.95 519.76 118.95 519.76C173.24 475.36 181.23 449.52 196.24 421.28C205.74 403.44 212.53 369.84 216.44 343.84C207.16 343.84 132.94 343.84 123.66 343.84C123.66 343.84 127.49 318.88 138.99 310.48C147.1 310.48 212 310.48 220.12 310.48C220.6 298.24 219.08 228.24 218.52 205.36C214.57 205.36 183.02 205.36 179.07 205.36C171.73 241.36 146.34 250.72 140.67 253.44C135.08 256.16 121.82 259.12 123.82 253.44C125.89 247.76 145.38 216.48 158.31 164.88C171.33 113.2 209.34 115.28 209.34 115.28C199.12 133.28 191.45 174.16 191.45 174.16C204.2 174.16 306.22 174.16 318.97 174.16C327.03 174.16 327.43 205.36 327.43 205.36C320.18 205.36 262.18 205.36 254.93 205.36C254.37 223.52 252.69 272.4 250.94 310.48C258.56 310.48 319.57 310.48 327.19 310.48C327.19 310.48 336.94 322.8 336.94 343.84C331.08 343.84 301.8 343.84 249.1 343.84C249.05 344.56 249.03 344.96 249.02 345.04C247.82 361.36 243.99 380.16 238.72 399.12C240 398.15 246.42 393.33 257.96 384.64C291.98 423.38 310.88 444.9 314.66 449.2ZM455.91 477.44L400.42 514.72L387.32 477.44L355.3 477.44L355.3 167.6L525.86 167.6L525.86 477.44L455.91 477.44ZM238.72 399.2C238.72 399.2 238.72 399.12 238.72 399.2C238.72 399.2 238.72 399.2 238.72 399.2ZM411.19 474.64L456.55 444.16L492.96 444.16L492.88 444.16L492.88 202.16L389.24 202.16L389.24 444.16L400.49 444.16L411.19 474.64Z" id="a88fEAogJ3"></path></defs><g><g><g><use xlink:href="#a88fEAogJ3" opacity="1" fill="#000000" fill-opacity="1"></use><g><use xlink:href="#a88fEAogJ3" opacity="1" fill-opacity="0" stroke="#000000" stroke-width="1" stroke-opacity="0"></use></g></g></g></g></svg>