<svg width="1024" height="1024" xmlns="http://www.w3.org/2000/svg" class="icon">
 <defs>
  <style type="text/css"/>
 </defs>
 <g>
  <title>background</title>
  <rect fill="none" id="canvas_background" height="402" width="582" y="-1" x="-1"/>
 </g>
 <g>
  <title>Layer 1</title>
  <path stroke="null" id="svg_1" fill="#000000" d="m510.540844,3.989247c-281.007643,0 -508.611129,227.603486 -508.611129,508.611129a508.305962,508.305962 0 0 0 347.788291,482.570232c25.430552,4.424917 34.941584,-10.833417 34.941584,-24.209886c0,-12.054084 -0.661198,-52.081783 -0.661198,-94.703388c-127.763107,23.548687 -160.822838,-31.127001 -170.995056,-59.761815c-5.747302,-14.648 -30.516668,-59.761803 -52.132636,-71.866752c-17.801397,-9.51102 -43.23195,-33.059719 -0.661198,-33.670053c40.078553,-0.661198 68.662502,36.874303 78.224387,52.132636c45.775001,76.902002 118.913285,55.286033 148.107568,41.960418c4.47577,-33.059719 17.801385,-55.286021 32.449386,-68.001303c-113.165971,-12.715282 -231.418058,-56.608418 -231.418058,-251.152174c0,-55.336886 19.683251,-101.061035 52.132636,-136.71467c-5.086115,-12.715282 -22.887501,-64.847918 5.086115,-134.781952c0,0 42.570751,-13.325604 139.868055,52.183501a471.991128,471.991128 0 0 1 127.152785,-17.191052c43.231938,0 86.463887,5.696449 127.152773,17.140199c97.246451,-66.11945 139.868067,-52.081783 139.868067,-52.081783c27.973604,69.934034 10.172219,122.06667 5.086103,134.781952c32.398533,35.602771 52.132648,80.716586 52.132648,136.663805c0,195.204954 -118.86242,238.436892 -232.028403,251.152174c18.411731,15.868667 34.331251,46.385335 34.331251,94.093054c0,68.001315 -0.661187,122.677003 -0.661187,139.868067c0,13.325604 9.561885,29.194271 34.992437,24.108167a509.424899,509.424899 0 0 0 346.465906,-482.519378c0,-281.007643 -227.603486,-508.611129 -508.611129,-508.611129z"/>
 </g>
</svg>