<svg width="1024" height="1024" xmlns="http://www.w3.org/2000/svg">
 <title>Stack Overflow</title>

 <metadata id="metadata5">image/svg+xmlStack OverflowStack Overflow</metadata>
 <g>
  <title>background</title>
  <rect fill="none" id="canvas_background" height="1026" width="1026" y="-1" x="-1"/>
 </g>
 <g>
  <title>Layer 1</title>
  <g stroke="null" id="layer6">
   <path stroke="null" id="path2" d="m112.935102,4.72726c-59.840116,0 -108.389645,48.549528 -108.389645,108.389645l0,794.857394c0,59.840116 48.549528,108.389645 108.389645,108.389645l794.857394,0c59.840116,0 108.389645,-48.549528 108.389645,-108.389645l0,-794.857394c0,-59.840116 -48.549528,-108.389645 -108.389645,-108.389645l-794.857394,0zm510.488942,144.519526l191.917934,258.669132l-51.72941,38.379192l-191.913531,-258.669155l51.725006,-38.37917zm-119.309766,103.472074l247.815174,206.092906l-40.893087,49.233151l-247.81077,-206.110564l40.888684,-49.215492zm-95.127607,133.502374l292.046933,136.832216l-26.696076,58.411157l-292.042507,-136.003081l26.69165,-59.240293zm-55.068082,146.023478l315.399933,65.904381l-13.35024,63.430185l-315.39553,-65.92204l13.345836,-63.412526zm-148.532969,81.764135l64.263724,0l0,193.593886l451.411821,0l0,-193.593886l64.241684,0l0,257.83557l-579.917229,0l0,-257.83557zm128.505408,64.25932l322.077255,0l0,64.241684l-322.077255,0l0,-64.241684z"/>
  </g>
 </g>
</svg>