<svg width="1024" height="1024" xmlns="http://www.w3.org/2000/svg" class="icon">
 <defs>
  <style type="text/css"/>
 </defs>
 <g>
  <title>background</title>
  <rect fill="none" id="canvas_background" height="3940.459706" width="3940.459706" y="-1" x="-1"/>
 </g>
 <g>
  <title>Layer 1</title>
  <path stroke="null" id="svg_1" fill="#000000" d="m870.205637,870.417669l-150.711824,0l0,-236.160425c0,-56.315504 -1.144969,-128.787792 -78.536382,-128.787792c-78.578787,0 -90.579757,61.277036 -90.579757,124.631979l0,240.316238l-150.711824,0l0,-485.636414l144.774949,0l0,66.196162l1.950688,0c20.227783,-38.165628 69.419036,-78.451568 142.909073,-78.451569c152.704919,0 180.947483,100.502821 180.947483,231.326113l0,266.565709l-0.042407,0zm-640.758488,-552.087013a87.441695,87.441695 0 0 1 -87.4841,-87.568913a87.526507,87.526507 0 1 1 87.4841,87.568913zm75.567944,552.087013l-151.135887,0l0,-485.636414l151.135887,0l0,485.636414zm640.588864,-867.292694l-867.377507,0c-41.515722,0 -75.101475,32.82244 -75.101475,73.320412l0,871.109256c0,40.540379 33.585753,73.320412 75.101475,73.320412l867.250288,0c41.473316,0 75.398318,-32.780034 75.398318,-73.320412l0,-871.109256c0,-40.497972 -33.925002,-73.320412 -75.398318,-73.320412l0.127219,0z"/>
 </g>
</svg>