<svg width="1024" height="1024" xmlns="http://www.w3.org/2000/svg">
 <title>Google Scholar</title>

 <metadata id="metadata5">image/svg+xmlGoogle ScholarGoogle Scholar</metadata>
 <g>
  <title>background</title>
  <rect fill="none" id="canvas_background" height="1026" width="1026" y="-1" x="-1"/>
 </g>
 <g>
  <title>Layer 1</title>
  <g stroke="null" id="layer6">
   <path stroke="null" id="path2" d="m116.57136,6.285693c-59.624983,0 -107.999969,48.374986 -107.999969,107.999969l0,791.999772c0,59.624983 48.374986,107.999969 107.999969,107.999969l791.999772,0c59.624983,0 107.999969,-48.374986 107.999969,-107.999969l0,-791.999772c0,-59.624983 -48.374986,-107.999969 -107.999969,-107.999969l-791.999772,0zm316.564356,143.999959l401.040425,0l-37.059087,28.933597l0,51.060023c13.760771,1.766969 12.304684,10.035425 12.304684,19.929212l0,241.250893c0,11.172664 -9.13961,20.315919 -20.311509,20.315919l-7.479493,0c-11.172664,0 -20.315919,-9.144065 -20.315919,-20.315919l0,-241.250893c0,-9.91757 -1.439887,-18.194822 12.423349,-19.937987l0,-32.097658l-106.703587,87.50828c1.232887,2.285392 2.402437,3.751874 3.515624,5.668941c9.375387,16.599033 14.150381,37.235667 14.150381,62.459465c0,19.334807 -3.222089,36.708672 -9.75584,52.04442c-6.504343,15.339056 -14.414846,27.865139 -23.642588,37.516107c-9.227675,9.68465 -18.484757,18.53131 -27.742672,26.499007c-9.254832,7.98329 -17.16538,16.304935 -23.642566,24.947745c-6.528126,8.613313 -9.78221,17.521802 -9.78221,26.7495c0,9.243312 4.220864,18.631907 12.629876,28.094234c8.378683,9.491847 18.686897,18.689282 30.875954,27.77343c12.216101,9.023465 24.404258,19.04125 36.593269,29.939931c12.215336,10.880637 22.470879,24.8874 30.849584,41.89744c8.438555,17.06665 12.656246,35.85896 12.656246,56.513661c0,27.245872 -6.947008,51.853463 -20.803697,73.753404c-13.887086,21.809626 -31.992223,39.214946 -54.228494,51.974108c-22.295334,12.846124 -46.141232,22.514191 -71.569329,29.047829c-25.487925,6.473991 -50.771258,9.725105 -76.025363,9.725105c-15.939513,0 -32.023453,-1.231875 -48.199194,-3.748544c-16.227423,-2.519999 -32.486008,-6.971128 -48.862786,-13.240706c-16.406253,-6.314736 -30.939876,-14.064273 -43.53661,-23.378911c-12.627109,-9.213005 -22.792133,-21.108886 -30.585929,-35.595687c-7.793818,-14.486666 -11.663074,-30.776774 -11.663074,-48.867173c0,-21.461911 5.978113,-41.366958 17.96044,-59.928193c11.981517,-18.425875 27.860167,-33.80741 47.605936,-45.993159c34.454803,-21.432346 88.506987,-34.675415 162.070266,-39.682609c-16.81483,-21.021361 -25.250978,-40.814426 -25.250978,-59.330548c0,-10.536094 2.749184,-21.824634 8.200213,-34.013668c-8.789667,1.230457 -17.839345,1.920419 -27.070305,1.920419c-39.516131,0 -72.889652,-12.846416 -99.988756,-38.715806c-27.099037,-25.826753 -40.631816,-58.153933 -40.631816,-97.237772c0,-4.085976 0.117427,-7.691983 0.40869,-11.676259l-160.602495,0l242.169359,-210.511177zm70.602527,86.25143c-25.197563,0 -44.531672,9.065382 -58.007796,27.158212c-13.472771,18.045265 -20.214849,39.902951 -20.214849,65.579561c0,21.869566 3.691371,44.136977 11.074227,66.840798c7.353223,22.692323 19.397762,42.951318 36.272442,60.80711c16.814785,17.90086 36.38681,26.832997 58.623036,26.832997c24.78579,0 44.151422,-8.301238 58.038553,-24.912578c13.826359,-16.583463 20.768552,-37.515207 20.768552,-62.727529c0,-21.476626 -3.659399,-43.958237 -11.012689,-67.469223c-7.326178,-23.540551 -19.541357,-44.780882 -36.593247,-63.689922c-16.99276,-18.97222 -36.682482,-28.419427 -58.948228,-28.419427zm41.664543,387.180069c-18.078047,0 -35.862852,1.60263 -53.32323,4.794434c-17.460377,3.104909 -34.687678,8.347183 -51.679673,15.745608c-17.051868,7.356553 -30.820919,18.168722 -41.308593,32.466793c-10.547637,14.280003 -15.793938,31.098794 -15.793938,50.449193c0,18.44059 4.633041,34.88912 13.891114,49.214348c9.23096,14.237276 21.415381,25.388858 36.562489,33.372058c15.147018,7.998095 31.024904,14.031288 47.605936,17.999995c16.611295,3.941639 33.517835,5.994133 50.74365,5.994133c34.070885,0 63.395487,-7.675085 88.004855,-23.014141c24.548708,-15.335771 36.856924,-39.019624 36.856924,-70.984847c0,-6.723268 -0.938002,-13.347019 -2.786129,-19.806159c-1.931872,-6.533751 -3.833211,-12.125697 -5.708496,-16.769515c-1.875262,-4.556811 -5.448891,-10.051422 -10.722664,-16.37842c-5.244321,-6.341871 -9.2603,-11.030734 -11.957509,-14.150381c-2.753774,-3.222179 -7.902335,-7.823315 -15.495116,-13.904299c-7.524583,-6.105936 -12.330716,-9.912327 -14.471186,-11.320309l-0.004387,0c-2.109847,-1.479645 -7.586323,-5.479873 -16.40479,-11.970694c-8.817522,-6.549388 -13.649644,-10.021655 -14.501943,-10.432617c-4.629059,-0.834232 -11.128654,-1.30518 -19.507314,-1.30518z"/>
  </g>
 </g>
</svg>